<svg xmlns="http://www.w3.org/2000/svg" viewBox="0 0 649.55 240.16"        width="500" height="200" ><defs><style>.cls-1{fill:#010334;}</style></defs><g id="Ebene_2" data-name="Ebene 2"><g id="Layer_1" data-name="Layer 1"><path class="cls-1" d="M535,64.35a55.73,55.73,0,1,0,55.73,55.73A55.73,55.73,0,0,0,535,64.35Zm0,87a31.26,31.26,0,1,1,31.26-31.26A31.26,31.26,0,0,1,535,151.34Z"/><path class="cls-1" d="M228.23,66.45h23.44l35.52,66.69,35.36-66.69h23.6V173.71H319.8V116.4l-30,57.31h-5.21l-30-57.16v57.16H228.24V66.45Z"/><path class="cls-1" d="M148.65,66.82H122.2v64.05a18.49,18.49,0,0,1-37,0H58.77a44.94,44.94,0,0,0,89.88,0Z"/><path class="cls-1" d="M412,66.45H372.36V173.71H412a53.63,53.63,0,0,0,0-107.26Zm-3.22,84.89h-10V88.82h10a31.26,31.26,0,0,1,0,62.52Z"/><rect class="cls-1" x="175.08" y="66.82" width="26.54" height="106.52"/><path class="cls-1" d="M633.55,16V224.16H16V16H633.55m16-16H0V240.16H649.55V0Z"/></g></g></svg>
