<?xml version="1.0" encoding="UTF-8" standalone="no"?>
<svg
   xmlns="http://www.w3.org/2000/svg"
   xmlns:xlink="http://www.w3.org/1999/xlink"
   height="480"
   width="1200"
   xml:space="preserve"
   id="svg2"
   version="1.1"><title
     id="title877">Sirene logo</title><g
     transform="matrix(1.3333333,0,0,-1.3333333,0,480)"
     id="g10"><g
       transform="matrix(1.2818411,0,0,1.2818411,-89.653565,-226.96875)"
       id="g12"><g
         style="fill:#000000;fill-opacity:1"
         transform="translate(158.2793,296.3403)"
         id="g36"><path
           id="path38"
           style="fill:#000000;fill-opacity:1;fill-rule:nonzero;stroke:none"
           d="m 0,0 -37.772,34.797 c -5.34,4.24 -8.002,9.547 -8.002,15.918 0,6.363 2.061,11.582 6.184,15.642 4.122,4.063 9.246,6.096 15.37,6.096 6.124,0 11.219,-1.67 15.281,-5.004 4.062,-3.34 6.157,-12.029 6.276,-17.851 h 1.821 l -0.363,26.494 h -7.279 c -5.703,1.211 -10.975,1.818 -15.824,1.818 -9.707,0 -17.407,-3.064 -23.104,-9.189 -5.701,-6.125 -8.553,-13.614 -8.553,-22.467 0,-8.852 3.58,-16.068 10.737,-21.645 L -8.37,-9.458 c 5.579,-4.367 9.618,-9.158 12.102,-14.375 2.48,-5.214 3.727,-10.064 3.727,-14.548 0,-0.85 -0.062,-1.702 -0.18,-2.553 -1.215,-12.002 -6.731,-20.551 -16.554,-25.647 -5.22,-2.789 -11.37,-4.183 -18.466,-4.183 -7.097,0 -13.431,1.881 -19.01,5.639 -9.586,6.302 -14.373,15.158 -14.373,26.556 0,9.586 3.154,18.496 9.461,26.744 l -1.639,1.278 c -4.849,-5.217 -8.124,-10.405 -9.822,-15.555 -1.701,-5.158 -2.548,-9.219 -2.548,-12.193 0,-2.969 0.183,-5.422 0.548,-7.366 2.3,-12.853 9.153,-21.949 20.555,-27.287 6.062,-2.908 12.975,-4.365 20.738,-4.365 12.735,0 22.919,3.457 30.563,10.371 8.85,8.004 13.28,17.582 13.28,28.738 C 20.012,-23.284 13.341,-10.547 0,0" /></g><g
         style="fill:#000000;fill-opacity:1"
         transform="translate(215.7461,371.9458)"
         id="g24"><path
           id="path26"
           style="fill:#000000;fill-opacity:1;fill-rule:nonzero;stroke:none"
           d="m 0,0 -0.437,-0.434 -0.14,-0.867 0.286,-0.287 c 1.825,-0.289 3.221,-0.433 4.182,-0.433 3.367,-0.383 5.384,-2.788 6.058,-7.208 0.193,-0.865 0.29,-4.375 0.29,-10.525 v -45.281 -11.825 -31.723 h 12.253 v 22.928 70.946 14.996 H 1.728 C 1.443,0.287 0.865,0.191 0,0" /></g><g
         style="fill:#000000;fill-opacity:1"
         transform="translate(329.5464,313.688)"
         id="g20"><path
           id="path22"
           style="fill:#000000;fill-opacity:1;fill-rule:nonzero;stroke:none"
           d="m 0,0 c -7.494,0 -12.737,0.861 -15.717,2.594 -0.287,0.289 -0.433,0.58 -0.433,0.863 v 48.455 c 0.485,1.346 4.424,2.022 11.825,2.022 7.304,0 13.221,-2.793 17.74,-8.366 4.228,-5.191 6.344,-11.537 6.344,-19.035 C 19.759,8.842 13.171,0 0,0 m 164.431,-88.6 -0.575,-0.289 c -1.253,0 -3.172,-0.236 -5.771,-0.719 -2.594,-0.484 -4.518,-0.723 -5.77,-0.723 -17.493,0 -34.171,4.137 -50.033,12.401 -12.687,6.541 -26.102,16.535 -40.237,29.996 -2.501,2.496 -26.426,24.861 -47.767,47.067 4.17,2.596 9.15,6.937 12.972,13.861 3.826,6.922 4.765,13.152 4.765,17.863 0,18.459 -11.657,27.688 -34.969,27.688 h -34.963 c -0.291,0 -0.869,-0.096 -1.731,-0.287 l -0.439,-0.434 -0.142,-0.867 0.289,-0.287 c 0.19,-0.1 0.815,-0.141 1.874,-0.141 1.92,0 4.18,-0.535 6.775,-1.588 1.924,-0.773 3.078,-3.269 3.464,-7.5 0.092,-0.867 0.142,-3.847 0.142,-8.937 v -48 -9.106 -31.723 h 11.535 v 22.928 5.318 17.175 l 0.433,0.574 0.575,0.146 C -2.93,-4.473 3.27,-4.664 3.462,-4.758 20.189,-21.2 60.195,-60.639 64.065,-63.364 c 6.148,-5.095 10.911,-8.797 14.277,-11.101 17.691,-13.27 37.974,-19.905 60.851,-19.905 6.636,0 13.938,0.823 21.918,2.452 3.463,0.675 5.098,1.058 4.907,1.154 l 0.573,0.724 0.146,0.432 v 0.578 l -0.719,0.43 z" /></g><g
         style="fill:#000000;fill-opacity:1"
         transform="translate(427.291,367.0415)"
         id="g28"><path
           id="path30"
           style="fill:#000000;fill-opacity:1;fill-rule:nonzero;stroke:none"
           d="m 0,0 c 1.059,-1.541 1.68,-8.414 1.875,-20.621 v -5.631 -14.416 -19.463 H 1.817 c -0.028,-4.67 -0.063,-9.336 -0.077,-14.03 v -29.548 c 5.198,-0.034 11.598,-0.096 19.24,-0.184 11.973,-0.15 20.932,-0.219 26.897,-0.219 4.996,0 8.266,0.141 9.801,0.434 l 1.16,0.867 1.008,2.16 c -0.098,0.477 0.188,2.789 0.865,6.918 0.667,4.135 1.006,6.586 1.006,7.354 0,0.867 -0.143,1.447 -0.434,1.734 l -0.43,0.145 -0.578,-0.145 c -0.961,-2.502 -1.538,-4.52 -1.729,-6.059 -1.732,-5.287 -6.583,-7.925 -14.566,-7.925 H 30.426 c -7.118,0.476 -11.634,1.195 -13.553,2.16 -1.969,1.711 -3.133,6.939 -3.503,15.646 0.121,-1.842 0.183,6.379 0.183,24.733 0,1.27 0.037,2.197 0.101,2.811 h 17.369 c 3.236,0 5.127,-0.219 5.678,-0.651 0.379,-0.322 0.986,-1.972 1.809,-4.943 0.106,-0.166 0.244,-0.248 0.409,-0.248 l 0.244,0.084 0.251,0.248 c 0.107,0.494 0.16,0.822 0.16,0.986 v 16.367 c 0,0.165 -0.053,0.493 -0.16,0.987 l -0.251,0.248 -0.493,0.078 -0.16,-0.164 c -0.164,-1.041 -0.251,-1.832 -0.251,-2.385 -0.219,-1.916 -1.591,-3.066 -4.111,-3.453 -0.491,-0.111 -2.496,-0.166 -6.003,-0.166 H 13.7 v 2.031 20.865 22.237 c 0,0.582 1.442,0.873 4.324,0.873 8.458,0 13.602,-0.104 15.431,-0.299 7.113,-0.869 10.914,-3.057 11.392,-6.562 l 0.286,-0.436 c -0.092,-0.488 -0.07,-1.217 0.072,-2.189 0.149,-0.977 0.264,-1.655 0.363,-2.045 0.092,-0.387 0.241,-0.684 0.434,-0.873 h 0.866 c 1.153,0.668 1.729,5.048 1.729,13.119 0.386,0.675 0.719,2.355 1.007,5.049 L 49.461,5.912 48.739,6.346 C 46.914,5.287 42.92,4.762 36.77,4.762 H 3.749 c -0.288,0 -2.646,0.142 -7.063,0.429 -2.977,0.19 -5.333,0.096 -7.067,-0.287 l -0.426,-0.433 -0.149,-0.867 c 0,-0.094 1.561,-0.334 4.685,-0.721 C -3.15,2.5 -1.062,1.535 0,0" /></g><g
         style="fill:#000000;fill-opacity:1"
         transform="translate(640.4111,373.8267)"
         id="g40"><path
           id="path42"
           style="fill:#000000;fill-opacity:1;fill-rule:nonzero;stroke:none"
           d="m 0,0 h -19.163 v -36.479 l 1.16,-52.66 c -29.035,31.239 -48.475,52.453 -62.891,68.219 -3.174,3.658 -6.345,7.26 -9.519,10.818 -4.524,5.094 -8.172,8.604 -10.959,10.526 l -0.719,-0.436 c -0.578,-1.152 -0.864,-3.41 -0.864,-6.773 v -73.833 c 0,-6.949 -0.212,-21.779 -0.629,-30.279 h 10.932 v 37.852 l -1.386,51.117 c 7.086,-8.361 18.744,-23.746 39.54,-46.142 26.155,-28.171 40.765,-42.632 43.835,-43.405 l 0.577,0.432 0.43,0.869 c 0.476,6.722 0.718,14.273 0.718,22.638 0.095,5.383 0.121,12.956 0.073,22.712 -0.052,9.756 -0.073,33.336 -0.073,38.724 0,11.145 0.335,17.829 1.01,20.041 l 1.441,2.309 c 1.728,1.154 4.083,1.729 7.064,1.729 0.676,0.195 1.011,0.529 1.011,1.009 L 1.302,-0.578 C 0.625,-0.197 0.191,0 0,0" /></g><use
         height="100%"
         width="100%"
         transform="translate(259.8982,-4e-4)"
         id="use849"
         xlink:href="#g28"
         y="0"
         x="0" /></g></g></svg>