<?xml version="1.0" encoding="UTF-8" standalone="no"?>
<!-- Created with Inkscape (http://www.inkscape.org/) -->

<svg
   xmlns:dc="http://purl.org/dc/elements/1.1/"
   xmlns:cc="http://creativecommons.org/ns#"
   xmlns:rdf="http://www.w3.org/1999/02/22-rdf-syntax-ns#"
   xmlns:svg="http://www.w3.org/2000/svg"
   xmlns="http://www.w3.org/2000/svg"
   xmlns:sodipodi="http://sodipodi.sourceforge.net/DTD/sodipodi-0.dtd"
   xmlns:inkscape="http://www.inkscape.org/namespaces/inkscape"
   version="1.1"
   id="svg2"
   xml:space="preserve"
   width="125"
   height="75"
   viewBox="0 0 125 75"
   sodipodi:docname="Mondex Logo.svg"
   inkscape:version="0.92.2 (5c3e80d, 2017-08-06)"><metadata
     id="metadata8"><rdf:RDF><cc:Work
         rdf:about=""><dc:format>image/svg+xml</dc:format><dc:type
           rdf:resource="http://purl.org/dc/dcmitype/StillImage" /><dc:title></dc:title></cc:Work></rdf:RDF></metadata><defs
     id="defs6"><clipPath
       clipPathUnits="userSpaceOnUse"
       id="clipPath108"><path
         d="M 125.178,776.943 H 428.906 V 586.785 H 125.178 Z"
         id="path106"
         inkscape:connector-curvature="0" /></clipPath></defs><sodipodi:namedview
     pagecolor="#ffffff"
     bordercolor="#666666"
     borderopacity="1"
     objecttolerance="10"
     gridtolerance="10"
     guidetolerance="10"
     inkscape:pageopacity="0"
     inkscape:pageshadow="2"
     inkscape:window-width="1366"
     inkscape:window-height="705"
     id="namedview4"
     showgrid="false"
     inkscape:zoom="4.627451"
     inkscape:cx="95.778999"
     inkscape:cy="23.164573"
     inkscape:window-x="-8"
     inkscape:window-y="-8"
     inkscape:window-maximized="1"
     inkscape:current-layer="g10" /><g
     id="g10"
     inkscape:groupmode="layer"
     inkscape:label="Pages from mondex_brandmark_v04"
     transform="matrix(0,1.3333333,1.3333333,0,0,-741)"><g
       id="g958"
       transform="translate(431.0269,-617.95142)"><g
         clip-path="url(#clipPath108)"
         id="g104"><path
           inkscape:connector-curvature="0"
           id="path110"
           style="fill:#0066cc;fill-opacity:1;fill-rule:nonzero;stroke:none"
           d="m 152.929,673.906 c 15.328,0 27.752,-12.424 27.752,-27.751 0,-15.327 -12.424,-27.751 -27.752,-27.751 -15.327,0 -27.751,12.424 -27.751,27.751 0,15.327 12.424,27.751 27.751,27.751" /><path
           inkscape:connector-curvature="0"
           id="path112"
           style="fill:#ff9900;fill-opacity:1;fill-rule:nonzero;stroke:none"
           d="m 173.498,664.784 c 4.463,4.923 7.182,11.458 7.182,18.629 0,15.325 -12.423,27.751 -27.751,27.751 -15.325,0 -27.751,-12.426 -27.751,-27.751 0,-7.171 2.718,-13.707 7.183,-18.63 0.909,-1.003 1.893,-1.94 2.937,-2.802 v 5.606 c 0.933,0.766 1.912,1.473 2.94,2.116 v -9.838 c 0.943,-0.589 1.923,-1.124 2.939,-1.598 V 671.3 c 0.951,0.445 1.931,0.84 2.938,1.176 V 657.09 c 0.957,-0.32 1.937,-0.589 2.938,-0.805 v 16.997 c 1.001,0.215 2.023,0.378 3.06,0.484 0.975,-1.214 2.809,-1.977 5.099,-1.977 1.735,0 2.817,0.529 3.238,1.569 1.125,-0.228 2.222,-0.524 3.294,-0.882 V 657.09 c 1.007,0.338 1.987,0.731 2.94,1.176 V 671.3 c 1.014,-0.474 1.994,-1.008 2.939,-1.6 v -9.835 c 1.024,0.643 2.007,1.35 2.937,2.116 v 5.606 c 1.044,-0.862 2.029,-1.8 2.938,-2.803" /></g><path
         d="m 168.398,707.465 c -0.494,0 -0.896,0.401 -0.896,0.895 0,0.497 0.402,0.897 0.896,0.897 0.495,0 0.896,-0.4 0.896,-0.897 0,-0.494 -0.401,-0.895 -0.896,-0.895 z m 0.682,0.895 c 0,0.377 -0.305,0.681 -0.682,0.681 -0.376,0 -0.68,-0.304 -0.68,-0.681 0,-0.376 0.304,-0.681 0.68,-0.681 0.377,0 0.682,0.305 0.682,0.681 z m -0.288,-0.121 v -0.183 h -0.787 v 0.333 c 0,0.069 0,0.14 0.039,0.2 0.044,0.065 0.118,0.102 0.197,0.102 0.09,0 0.172,-0.053 0.204,-0.138 l 0.347,0.144 v -0.203 l -0.311,-0.119 v -0.136 z m -0.447,0 v 0.103 c 0,0.036 0.003,0.077 -0.014,0.11 -0.021,0.032 -0.056,0.047 -0.09,0.047 -0.032,0 -0.065,-0.02 -0.08,-0.044 -0.02,-0.033 -0.017,-0.085 -0.017,-0.118 v -0.098 h 0.201"
         style="fill:#ff9900;fill-opacity:1;fill-rule:nonzero;stroke:none"
         id="path114"
         inkscape:connector-curvature="0" /><path
         d="m 160.671,641.008 v -3.453 l -10.817,2.052 10.817,-4.728 v -3.148 l -10.754,-0.576 10.754,-2.059 v -3.135 l -14.071,2.67 v 5.398 l 7.844,0.451 -7.844,3.42 v 5.832 l 14.071,-2.724"
         style="fill:#000066;fill-opacity:1;fill-rule:nonzero;stroke:none"
         id="path116"
         inkscape:connector-curvature="0" /><path
         d="m 153.936,651.81 c 2.593,0 4.13,-1.064 4.13,-2.743 0.017,-1.226 -1.01,-1.968 -2.548,-1.968 -1.823,0 -3.882,1.083 -3.882,2.824 0,1.405 1.114,1.887 2.3,1.887 z m 0.072,3.707 c -2.872,0 -5.114,-1.887 -5.114,-5.44 0,-4.09 2.724,-6.733 6.739,-6.733 2.873,0 5.225,1.559 5.225,5.433 0,3.909 -2.088,6.74 -6.85,6.74"
         style="fill:#000066;fill-opacity:1;fill-rule:nonzero;stroke:none"
         id="path118"
         inkscape:connector-curvature="0" /><path
         d="m 152.163,657.224 c -0.994,0.174 -1.966,0.33 -3.004,0.426 v 3.235 l 1.878,-0.271 v 0.039 c -1.282,1.007 -2.143,2.047 -2.143,3.886 0,2.035 1.723,3.14 3.978,3.14 0.773,0 1.215,-0.058 2.428,-0.272 l 5.371,-0.929 v -3.604 l -5.394,0.969 c -0.572,0.096 -1.147,0.232 -1.743,0.232 -0.685,0 -1.371,-0.387 -1.325,-1.356 0,-1.466 1.458,-2.338 3.159,-2.59 l 5.303,-0.987 v -3.48 l -8.508,1.562"
         style="fill:#000066;fill-opacity:1;fill-rule:nonzero;stroke:none"
         id="path120"
         inkscape:connector-curvature="0" /><path
         d="m 160.669,679.007 v -3.289 l -1.102,0.167 c 0.897,-0.964 1.292,-1.952 1.292,-3.238 0,-2.558 -1.92,-4.244 -4.83,-4.244 -3.872,0 -7.135,2.618 -7.135,5.716 0,1.365 0.484,2.39 1.584,3.351 l -4.266,0.813 v 3.428 z m -2.702,-5.146 c 0,1.636 -1.616,2.787 -3.922,2.787 -1.48,0 -2.28,-0.654 -2.28,-1.862 0,-1.596 1.622,-2.727 3.909,-2.727 1.524,0 2.293,0.606 2.293,1.802"
         style="fill:#000066;fill-opacity:1;fill-rule:nonzero;stroke:none"
         id="path122"
         inkscape:connector-curvature="0" /><path
         d="m 149.159,702.722 v -3.72 l 2.584,-1.598 -2.584,-1.131 v -3.193 l 4.641,1.879 5.459,-4.194 -1.46,0.279 c 0.409,-1.277 0.456,-2.264 0.456,-3.487 0,-2.008 -0.722,-3.258 -2.367,-3.002 v 6.88 c -1.16,0.299 -1.983,0.423 -2.828,0.423 -2.542,0 -4.164,-1.818 -4.164,-4.666 0,-3.48 2.894,-6.044 6.828,-6.044 3.371,0 5.132,2.016 5.134,5.88 0.003,0.914 -0.009,1.803 -0.189,2.667 v 4.226 l -4.435,2.9 4.435,1.451 v 3.593 l -6.711,-2.78 z m 2.355,-15.604 c 0.038,1.989 1.805,1.604 2.055,1.604 v -3.812 c -1.321,0.32 -2.055,1.108 -2.055,2.208"
         style="fill:#000066;fill-opacity:1;fill-rule:nonzero;stroke:none"
         id="path124"
         inkscape:connector-curvature="0" /><path
         d="m 159.804,641.876 v -3.454 l -10.817,2.053 10.817,-4.728 v -3.148 l -10.755,-0.576 10.755,-2.06 v -3.135 l -14.07,2.67 v 5.399 l 8.71,0.285 -8.71,3.8 v 5.617 l 14.07,-2.723"
         style="fill:#ffffff;fill-opacity:1;fill-rule:nonzero;stroke:none"
         id="path126"
         inkscape:connector-curvature="0" /><path
         d="m 153.069,652.677 c 2.592,0 4.129,-1.063 4.129,-2.744 0.018,-1.225 -1.01,-1.967 -2.546,-1.967 -1.825,0 -3.884,1.083 -3.884,2.825 0,1.404 1.114,1.886 2.301,1.886 z m 0.072,3.707 c -2.873,0 -5.114,-1.887 -5.114,-5.441 0,-4.089 2.725,-6.733 6.739,-6.733 2.872,0 5.225,1.56 5.225,5.434 0,3.91 -2.088,6.74 -6.85,6.74"
         style="fill:#ffffff;fill-opacity:1;fill-rule:nonzero;stroke:none"
         id="path128"
         inkscape:connector-curvature="0" /><path
         d="m 151.295,658.091 c -0.993,0.174 -1.966,0.33 -3.004,0.426 v 3.236 l 1.879,-0.271 v 0.039 c -1.282,1.007 -2.143,2.046 -2.143,3.886 0,2.035 1.723,3.138 3.978,3.138 0.772,0 1.215,-0.059 2.428,-0.271 l 5.371,-0.929 v -3.603 l -5.393,0.967 c -0.574,0.097 -1.147,0.234 -1.744,0.234 -0.685,0 -1.372,-0.388 -1.325,-1.357 0,-1.465 1.458,-2.337 3.159,-2.589 l 5.303,-0.988 v -3.48 l -8.509,1.562"
         style="fill:#ffffff;fill-opacity:1;fill-rule:nonzero;stroke:none"
         id="path130"
         inkscape:connector-curvature="0" /><path
         d="m 159.803,679.874 v -3.29 l -1.102,0.169 c 0.896,-0.964 1.29,-1.953 1.29,-3.241 0,-2.555 -1.92,-4.243 -4.829,-4.243 -3.871,0 -7.135,2.618 -7.135,5.718 0,1.365 0.483,2.39 1.584,3.352 l -4.266,0.81 v 3.431 z m -2.703,-5.147 c 0,1.638 -1.616,2.789 -3.922,2.789 -1.48,0 -2.282,-0.656 -2.282,-1.863 0,-1.596 1.623,-2.725 3.912,-2.725 1.522,0 2.292,0.603 2.292,1.799"
         style="fill:#ffffff;fill-opacity:1;fill-rule:nonzero;stroke:none"
         id="path132"
         inkscape:connector-curvature="0" /><path
         d="m 152.701,689.591 c -0.249,0 -2.014,0.384 -2.054,-1.607 0,-1.101 0.733,-1.886 2.054,-2.207 z m 6.861,1.115 c 0.413,-1.125 0.431,-1.597 0.429,-2.809 -0.003,-3.867 -1.765,-5.882 -5.134,-5.882 -3.933,0 -6.829,2.563 -6.829,6.045 0,2.847 1.622,4.665 4.165,4.665 0.845,0 1.667,-0.123 2.828,-0.421 v -6.88 c 1.645,-0.257 2.367,0.993 2.367,2.999 0,1.223 -0.046,1.509 -0.455,2.786 l 2.629,-0.503"
         style="fill:#ffffff;fill-opacity:1;fill-rule:nonzero;stroke:none"
         id="path134"
         inkscape:connector-curvature="0" /><path
         d="m 153.8,695.802 -5.509,-2.23 v 3.567 l 3.452,1.107 -3.452,2.138 v 3.839 l 5.667,-4.294 5.845,2.365 v -3.464 l -3.569,-1.164 3.569,-2.332 v -4.143 l -6.003,4.611"
         style="fill:#ffffff;fill-opacity:1;fill-rule:nonzero;stroke:none"
         id="path136"
         inkscape:connector-curvature="0" /><path
         d="m 158.908,702.904 c -0.497,0 -0.897,0.401 -0.897,0.895 0,0.495 0.4,0.897 0.897,0.897 0.493,0 0.895,-0.402 0.895,-0.897 0,-0.494 -0.402,-0.895 -0.895,-0.895 z m 0.681,0.895 c 0,0.376 -0.306,0.682 -0.681,0.682 -0.377,0 -0.683,-0.306 -0.683,-0.682 0,-0.376 0.306,-0.683 0.683,-0.683 0.375,0 0.681,0.307 0.681,0.683 z m -0.29,-0.122 v -0.183 h -0.786 v 0.334 c 0,0.068 0.002,0.139 0.04,0.2 0.043,0.065 0.118,0.1 0.196,0.1 0.09,0 0.172,-0.051 0.204,-0.136 l 0.346,0.145 v -0.205 l -0.311,-0.12 v -0.135 z m -0.445,0 v 0.104 c 0,0.036 0.003,0.077 -0.015,0.111 -0.02,0.029 -0.058,0.046 -0.09,0.046 -0.031,0 -0.066,-0.018 -0.084,-0.046 -0.016,-0.03 -0.011,-0.083 -0.011,-0.116 v -0.099 h 0.2"
         style="fill:#ffffff;fill-opacity:1;fill-rule:nonzero;stroke:none"
         id="path138"
         inkscape:connector-curvature="0" /></g></g></svg>