<?xml version="1.0" encoding="utf-8"?>
<!-- Generator: Adobe Illustrator 24.3.0, SVG Export Plug-In . SVG Version: 6.00 Build 0)  -->
<svg version="1.1" id="Layer_1" xmlns="http://www.w3.org/2000/svg" xmlns:xlink="http://www.w3.org/1999/xlink" x="0px" y="0px"
	 viewBox="0 0 1211.9 417.6" style="enable-background:new 0 0 1211.9 417.6;" width="500" height="200"  xml:space="preserve">
<style type="text/css">
	.st0{clip-path:url(#SVGID_2_);fill:url(#SVGID_3_);}
</style>
<g>
	<defs>
		<path id="SVGID_1_" d="M365.4,33.3c-0.7,4.2-1.4,8-2.1,12.4c11.7,0,23,0,34.9,0c-0.8,5.4-1.6,10.2-2.4,15.3c-11.7,0-23.1,0-35,0
			c-0.8,4.4-1.5,8.4-2.4,13.1c12.5,0,24.7,0,37.5,0c-0.9,5.6-1.7,10.5-2.5,15.6c-18.2,0-36.1,0-54.5,0c3.9-23.8,7.9-47.5,11.8-71.5
			c18.3,0,36.1,0,54.3,0c-0.9,5.2-1.7,10-2.5,15.1C390,33.3,377.9,33.3,365.4,33.3z M505.8,191.9c23.1-24.5,54.1-38,90.1-38.1
			c21.4,0.5,44.3,9,60.8,30.6c15.1,19.8,18.1,42.2,13.3,66.2c-2.1,10.5-7,19.8-12,29c-15.2,27.5-38.4,45.5-67.9,55.2
			c-24.4,8.1-48.9,8.3-72.4-3.2c-25.9-12.7-40.2-33.9-42.1-62.6C473.6,238.8,485.4,213.5,505.8,191.9z M565,291.8
			c22.8,0.4,45.3-15.7,53.3-37.4c4.6-12.6,3.1-24.3-3.2-35.8c-2.6-5-6.2-8.8-11.1-11.3c-3.7-1.9-8.1-3.5-12.1-4.1
			c-20.3-3.2-37.6,3.1-51.7,18.1c-7.7,8.2-12.7,18-13.8,29.2C524.2,274.2,540.7,291.7,565,291.8z M269.8,231.6
			c4.4-24.5,8.9-48.9,13.3-73.4c0.2-1.3,0.5-2.8,0.8-4.4c2.9,0,104.5-1.1,119.1,2c30,6.3,52.8,31.1,56.8,61.6
			c1.9,16.5-0.5,32.2-7.3,47.2c-4.9,10.7-10.6,20.8-18.5,29.6c-19,21.2-42,35.3-70.6,38.5c-11.5,1.3-23.2,0.5-34.9,0.6
			c-9.5,0-18.9,0-28.9,0c-1.1,5.5-2.1,10.6-3,15.7c-3.2,17.1-6.4,34.2-9.6,51.2c0.2,0.3,0.4,0.7,0.7,1c-16,0-32,0-48,0
			c-0.1-0.3-0.3-0.7-0.4-1c1.9-10.8,3.7-21.5,5.6-32.3c4.5-24.7,9-49.5,13.6-74.2c1.4-7.4,2.9-14.8,4.3-22.2
			c0.2-0.6,0.4-1.1,0.6-1.7c0.5-3.1,0.9-6.2,1.4-9.3C266.4,250.9,268,241.2,269.8,231.6z M308.4,286.8c2,0,3.1,0,4.3,0
			c14.8,0,29.6-0.3,44.4,0.1c19.1,0.5,33.2-7.9,44.2-22.7c11.5-15.5,13-37.1,1-52.7c-5.8-7.4-13.4-12.4-22.8-12.6
			c-18.1-0.5-36.3-0.1-54.4-0.1c-0.3,0-0.6,0.3-1.5,0.7C318.6,228.1,313.6,257.1,308.4,286.8z M620.3,91.2
			c-20.5,0.1-33.7-12.9-32.7-31.8c0.8-14.5,7-26.5,19.1-34.9c9.5-6.6,20-9.4,31.7-7.4c15.8,2.7,25.9,14.2,25.4,30.1
			c-0.5,16-7.4,28.8-21.1,37.4C635.8,89,628.1,91.5,620.3,91.2z M624.2,74.8c12.6-1.5,22-12.4,21.7-25.1
			c-0.2-10.2-6.6-16.6-16.5-16.7c-16.1-0.3-25.6,15.4-23.6,28.3C607.2,70.5,615,75.9,624.2,74.8z M79.8,47
			c8.1,14.1,16.3,28.3,24.3,42.4c5.5,0,10.7,0,16.4,0c4-24.1,7.9-47.8,11.9-71.7c-5.9,0-11.2,0-17,0c-2.3,14.2-4.7,28.3-7.3,43.5
			C99.4,46,91.3,31.8,83.3,17.8c-5.7,0-11,0-16.5,0c-4,24-7.9,47.7-11.9,71.5c5.9,0,11.3,0,17,0c2.3-14.2,4.7-28.1,7-42.1
			C79.2,47.1,79.5,47.1,79.8,47z M301.3,89.8c3.2-18.7,6.2-37.1,9.4-55.9c7.2,0,14,0,21,0c0.9-5.4,1.7-10.4,2.5-15.5
			c-20,0-39.5,0-59.1,0c-0.9,5.2-1.7,10.1-2.6,15.7c7.2,0,14,0,21,0c-3.1,18.8-6.1,37.1-9.2,55.7C290.3,89.8,295.7,89.8,301.3,89.8z
			 M467.4,60.3c-0.2,0.1-0.5,0.2-0.8,0.3c-8.2-14.2-16.3-28.4-24.3-42.4c-5.7,0-11,0-16.5,0c-4,23.9-7.9,47.6-11.9,71.5
			c5.8,0,11.2,0,16.9,0c2.4-14.2,4.7-28.3,7.1-42.3c0.3,0,0.6,0,0.9,0c8.1,14.2,16.2,28.5,24.4,42.4c5.6,0,10.8,0,16.4,0
			c4-23.9,7.9-47.6,11.9-71.7c-5.9,0-11.2,0-17,0C472.1,32.3,469.8,46.3,467.4,60.3z M177.8,282.4c-5.3,1.7-11,2.7-16.6,2.7
			c-44,0.2-87.9,0.1-131.9,0.1c-2,0-3.9,0-6.1,0c-3,16.3-5.9,32.1-8.9,48.3c2.5,0,4.3,0,6.1,0c44.5,0,88.9,0.1,133.4-0.1
			c7.3,0,14.7-0.7,21.8-2.1c33.9-6.5,58.3-30.7,64.8-63.7c3.9-20.3-0.2-38.4-16-52.7c-12.7-11.4-27.9-16.7-44.8-16.9
			c-25.3-0.3-50.6,0-75.9-0.2c-4.6,0-8.8-0.2-13.2-1.4c-5.2-1.4-7.8-5.4-7.4-10.7c0.8-11.9,6.2-17.5,16.3-19.3
			c1.3-0.2,142.7,0.4,152.1,0.4c3.1-16.4,6.1-32.9,9.2-49.6c-1.9,0-3.3,0-4.7,0c-47.1,0-94.1-0.1-141.2,0c-4,0-15.6-0.1-29,4.3
			c-30.7,10-48.6,32-53.3,64.2c-3.9,26.1,9.1,47.5,34,56.1c9.1,3.1,18.5,4.5,28,4.5c24.1,0.1,48.3,0,72.4,0.1
			c4.1,0,8.4,0.5,12.3,1.6c5.7,1.6,10,5.2,11.2,11.5C192.2,268.8,186.8,279.5,177.8,282.4z M205.9,47.4
			c8.1,14.1,16.3,28.3,24.3,42.4c5.5,0,10.7,0,16.4,0c4-24.1,7.9-47.8,11.9-71.7c-5.9,0-11.2,0-17,0c-2.3,14.2-4.7,28.3-7.3,43.5
			c-8.7-15.2-16.8-29.4-24.8-43.4c-5.7,0-11,0-16.5,0c-4,24-7.9,47.6-11.9,71.5c5.9,0,11.3,0,17,0c2.3-14.2,4.7-28.1,7-42.1
			C205.3,47.5,205.6,47.5,205.9,47.4z M171.1,18.2c-6.2,0-11.5,0-17,0c-4,24.1-7.9,47.7-11.8,71.4c6.2,0,11.5,0,17,0
			C163.2,65.7,167.1,42.2,171.1,18.2z M530.8,90.1c-9.6,0-19.2,0-29.6,0c4-24.5,7.9-48.1,11.9-71.7c0.9-0.2,1.5-0.4,2.2-0.4
			c10.7,0,21.3-0.3,31.9,0.2c19.3,0.8,30.6,15.1,27.6,34.1C571.1,75.9,554.7,89.9,530.8,90.1z M532.9,74.1
			c18.5,0.4,24.8-14.5,24.3-26.4c-0.4-7.8-5.5-13-13.3-13.5c-5.3-0.4-10.6-0.1-16.5-0.1c-2.2,13.4-4.3,26.4-6.6,40
			C525.4,74.1,529.2,74,532.9,74.1z M1107.4,18.2c-3.9,23.9-7.9,47.5-11.8,71.3c6.2,0,11.5,0,16.9,0c1.6-9.3,3.1-18.3,4.7-27.5
			c10.1,0,19.8,0,29.8,0c-1.5,9.4-2.9,18.3-4.4,27.6c5.9,0,11.3,0,16.9,0c4-23.9,7.9-47.5,11.7-71.3c-6.1,0-11.4,0-16.8,0
			c-1.6,9.2-3.2,18.1-4.7,26.8c-10.3,0-19.9,0-29.7,0c1.5-9.2,2.9-17.9,4.3-26.9C1118.3,18.2,1113,18.2,1107.4,18.2z M1052.7,33.4
			c8.3-1.6,15,1.1,19.5,9c5.4-2.8,10.5-5.5,16.1-8.5c-5.5-12.3-15.4-16.9-27.4-17.4c-25.1-1.1-46.6,20.6-45.5,45.6
			c0.5,11.4,5.3,20.5,15.9,25.7c15.8,7.7,38.4,2,49.3-12.8c-3.9-3.2-7.8-6.3-11.2-9.1c-4.4,2.7-7.9,5.7-12,7.3
			c-11.9,4.8-23-1.4-24-13.3c-0.3-3.3,0.5-6.9,1.5-10.2C1037.6,40.9,1043.6,35.2,1052.7,33.4z M749.2,73.5c-2.1,1.3-5,1.7-7.6,1.9
			c-8.3,0.6-15.7-2.2-22.7-7.3c-3.7,4.7-7.1,9.1-11,14.1c2.6,1.6,4.4,3.1,6.5,4c12.9,5.9,26.3,7,39.7,1.9c9.9-3.8,16-11,17.6-21.7
			c1.1-7.1-1.3-13-7.7-16.3c-3.6-1.9-7.7-2.9-11.7-4c-4.2-1.1-8.6-1.6-12.6-3c-4.2-1.5-4.8-5.5-1.1-7.9c2.5-1.7,5.8-2.6,8.8-2.9
			c7.3-0.7,14,2.1,20.5,5.8c3.3-4.6,6.4-9.2,9.8-13.9c-13.1-7.8-26.3-10-40.3-5.7c-7.8,2.4-14.1,7-17.5,14.6
			c-5.5,12.2-3.1,23.9,12.5,27.5c2.4,0.6,4.9,1,7.3,1.5c2.8,0.5,5.6,1,8.3,1.7c2.3,0.6,4.9,1.6,4.7,4.3
			C752.4,70.1,750.9,72.5,749.2,73.5z M948.2,34.1c7.3,0,14,0,21,0C966,53,963,71.3,960,89.6c6,0,11.4,0,16.9,0
			c3.1-18.7,6.2-37,9.3-55.7c7.1,0,13.9,0,21,0c0.9-5.4,1.8-10.4,2.7-15.8c-20,0-39.5,0-59.2,0C949.8,23.3,949,28.2,948.2,34.1z
			 M861.2,69.3c0,0-3.4-37.3-4.7-51.1c-6.2,0-12,0-18.4,0c-7.9,16.1-23.6,50.9-23.6,50.9s-3.1-38.4-4.1-50.8c-6.2,0-11.6,0-17.6-0.1
			c2.5,24.1,4.9,47.7,7.4,71.4c7.2,0,13.8,0,19.9,0c7.2-15,22.2-46,22.2-46s3.4,32.4,4.9,46.1c7,0,13.6,0,20.4,0
			c11.2-23.7,22.3-47.4,33.7-71.5c-6.1,0-11.5,0-17.2,0C876.7,34.7,861.2,69.3,861.2,69.3z M1198.7,26l-2.8-8.4h-3.6v12.3h2.5v-8.6
			l2.7,7.3h2.4l2.7-7.4V30h2.5V17.6h-3.6L1198.7,26z M1186.6,30V19.9h4v-2.2h-10.8v2.2h4V30H1186.6z M978.4,220.9
			c-1.1,15.1,5.2,27.2,17.9,35.6c10.3,6.9,22,9.1,34.2,9.1c17.9,0,35.7,0,53.5,0c2.1,0,4.3,0.1,6.4,0.5c5.1,1,7.4,3.9,7.4,9.1
			c0,7.4-4.7,12.6-12.1,13.3c-1.8,0.1-3.7,0.1-5.5,0.1c-34,0-67.9,0-101.9,0c-1.8,0-3.6,0-6,0c-2.8,14.8-5.6,29.4-8.5,44.7
			c2.8,0,4.6,0,6.4,0c34.5,0,68.9,0.1,103.4,0c5.1,0,10.3-0.3,15.4-1.1c27.2-4.1,54.2-24.3,57.6-57.6c1.7-16-5.9-32.5-19.8-40.7
			c-10.3-6-21.7-8.2-33.5-8.3c-18-0.1-36,0-54,0c-2.5,0-5-0.5-7.2-1.2c-2.7-0.9-3.4-2.2-4.1-3.3c-4.3-7.2,1.2-17,9.5-17.5
			c2.2-0.1,4.3-0.1,6.5-0.1c33.1,0,66.3,0,99.4,0c1.9,0,3.9,0,6.3,0c2.8-15,5.5-29.6,8.4-44.7c-2-0.1-75.6-0.2-110.9-0.3
			c-11.6,0-22.9,1.8-33.3,7.2C991.5,177.2,980.3,196.3,978.4,220.9z M934.2,18.2c-6,0-11.3,0-17,0c-4,23.9-8,47.6-11.9,71.6
			c6,0,11.2,0,17,0C926.3,66,930.2,42.2,934.2,18.2z M850.2,163.7c-2.2,12-4,24.1-6.2,36.2c-3,16.6-11.9,62.1-12.5,64.9
			c-2.8,13-3.8,26,0.6,38.8c5.6,16.4,25.1,30.4,46,30c19.3-0.3,38.5,0,57.8,0c1.2,0,2.3-0.2,3.7-0.3c2.7-14.8,5.3-29.3,8.1-44.5
			c-2.2,0-3.8,0-5.4,0c-15.9,0-31.9,0-47.8,0.1c-5.3,0-9.8-1.3-13.3-5.4c-2.2-5.6-2.1-11.3-0.9-17.1c2.1-11.5,4.3-22.9,6.4-34.3
			c0.9-4.9,1.8-9.7,2.8-15c23.7,0,47.1,0,70.9,0c2.7-15.2,5.4-29.9,8.1-45.3c-12.4,0-58.7,0-70.9,0c3.3-18.6,6.6-36.5,9.8-54.4
			c-16.7,0-32.6,0-48.7,0C855.8,133.1,852.9,148.4,850.2,163.7z M674.8,333.3c17.2,0,33.8,0,50.5,0c0.4-1.4,0.8-2.7,1-4
			c5.3-28.7,10.5-57.4,15.9-86.1c0.5-2.7,1.6-5.4,3-7.8c6.2-10.8,16.1-16.4,28.1-17.5c11.7-1.1,23.6-0.8,35.4-1
			c3.3-0.1,6.6,0,10.2,0c2.7-15.1,5.4-29.9,8.2-44.8c-1.8-0.1-25.7-0.4-36.2,0c-6.3,0.3-12.7,1.1-18.7,2.7
			c-6.4,1.7-12.4,4.7-18.8,7.2c1.3-7.5,2.6-15,4-22.9c-17.1,0-33.8,0-50.7,0C696,217.3,685.5,275.1,674.8,333.3z"/>
	</defs>
	<clipPath id="SVGID_2_">
		<use xlink:href="#SVGID_1_"  style="overflow:visible;"/>
	</clipPath>

		<linearGradient id="SVGID_3_" gradientUnits="userSpaceOnUse" x1="406.8189" y1="481.1249" x2="1705.2311" y2="481.1249" gradientTransform="matrix(0.766 -0.6428 -0.6428 -0.766 84.4679 1236.3516)">
		<stop  offset="0.1145" style="stop-color:#005DC9"/>
		<stop  offset="0.9487" style="stop-color:#00D9C6"/>
	</linearGradient>
	<polygon class="st0" points="1500.8,282.4 506.2,1116.9 -343.3,104.6 651.3,-730 	"/>
</g>
</svg>
